<?xml version="1.0" standalone="no"?>
<!DOCTYPE svg PUBLIC "-//W3C//DTD SVG 20010904//EN"
 "http://www.w3.org/TR/2001/REC-SVG-20010904/DTD/svg10.dtd">
<svg version="1.0" xmlns="http://www.w3.org/2000/svg"
 width="1280.000000pt" height="1280.000000pt" viewBox="0 0 1280.000000 1280.000000"
 preserveAspectRatio="xMidYMid meet">
<metadata>
Created by potrace 1.14, written by Peter Selinger 2001-2017
</metadata>
<g transform="translate(0.000000,1280.000000) scale(0.100000,-0.100000)"
fill="#000000" stroke="none">
<path d="M7487 9802 c-15 -10 -30 -25 -33 -35 -3 -9 -10 -15 -15 -12 -5 4 -9
-3 -9 -15 0 -11 -8 -23 -17 -26 -10 -3 -26 -10 -35 -15 -23 -12 -31 -11 -23 1
4 6 -1 7 -11 3 -11 -4 -13 -8 -6 -11 20 -6 13 -29 -15 -50 -16 -11 -25 -24
-21 -28 4 -4 15 -1 24 7 14 11 18 11 28 -4 7 -9 12 -30 11 -47 -2 -29 -1 -30
15 -12 32 34 55 92 30 77 -5 -3 -10 -1 -10 4 0 6 10 10 23 8 15 -1 22 3 22 15
0 9 4 20 9 25 5 5 6 2 1 -6 -6 -10 -4 -12 4 -7 6 4 9 16 6 27 -4 11 -2 19 4
19 6 0 11 -6 12 -12 0 -7 5 1 11 17 6 17 14 32 17 35 4 3 14 17 24 33 17 26
17 27 0 26 -10 0 -30 -8 -46 -17z m-100 -217 c-15 -16 -19 -13 -11 9 3 9 10
13 15 10 5 -3 3 -11 -4 -19z"/>
<path d="M7400 9730 c-9 -6 -10 -10 -3 -10 6 0 15 5 18 10 8 12 4 12 -15 0z"/>
<path d="M7269 9599 c-7 -34 -6 -39 9 -37 10 2 18 -7 22 -22 4 -14 12 -24 19
-22 8 1 7 -8 -4 -30 l-16 -33 24 29 c25 29 33 101 12 104 -5 1 -22 4 -37 8
-16 3 -28 5 -29 3z"/>
<path d="M7165 9530 c3 -5 13 -10 21 -10 8 0 12 5 9 10 -3 6 -13 10 -21 10 -8
0 -12 -4 -9 -10z"/>
<path d="M7282 9506 c7 -8 15 -12 17 -11 5 6 -10 25 -20 25 -5 0 -4 -6 3 -14z"/>
<path d="M7225 9430 c-3 -5 -1 -10 4 -10 6 0 11 5 11 10 0 6 -2 10 -4 10 -3 0
-8 -4 -11 -10z"/>
<path d="M7216 9380 c-27 -28 -46 -53 -43 -56 5 -5 75 66 90 92 14 24 2 16
-47 -36z"/>
<path d="M7100 9400 c0 -5 5 -10 10 -10 6 0 10 5 10 10 0 6 -4 10 -10 10 -5 0
-10 -4 -10 -10z"/>
<path d="M7200 9403 c0 -6 -9 -13 -21 -16 -20 -5 -19 -27 1 -27 12 0 33 40 26
48 -3 3 -6 1 -6 -5z"/>
<path d="M7117 9319 c-20 -17 -37 -38 -36 -47 0 -13 3 -11 9 5 5 12 17 24 27
27 14 5 51 46 40 46 -1 0 -19 -14 -40 -31z"/>
<path d="M7006 9231 c-3 -5 1 -11 9 -15 9 -3 15 0 15 9 0 16 -16 20 -24 6z"/>
<path d="M6945 9190 c-3 -5 -2 -10 4 -10 5 0 13 5 16 10 3 6 2 10 -4 10 -5 0
-13 -4 -16 -10z"/>
<path d="M6970 9169 c0 -5 5 -7 10 -4 6 3 10 8 10 11 0 2 -4 4 -10 4 -5 0 -10
-5 -10 -11z"/>
<path d="M8860 8305 c0 -59 -22 -193 -65 -396 -109 -523 -313 -1008 -617
-1469 -310 -472 -663 -847 -1182 -1255 -226 -178 -642 -444 -985 -630 -132
-71 -566 -285 -578 -285 -3 0 -51 -21 -107 -46 -55 -26 -141 -61 -191 -79 -49
-18 -175 -66 -280 -108 -104 -41 -284 -105 -400 -142 -115 -37 -228 -78 -250
-91 -34 -19 -42 -20 -52 -9 -7 8 -9 16 -4 19 5 4 7 16 4 27 -6 21 -5 21 15 3
16 -13 18 -20 9 -26 -7 -5 -8 -8 -1 -8 13 0 39 28 47 53 9 23 -2 47 -20 47
-11 0 -8 6 8 20 17 14 20 20 9 20 -74 6 -68 9 -75 -42 -5 -33 -11 -46 -18 -41
-7 4 -4 -5 6 -20 16 -24 16 -28 2 -33 -10 -4 -56 37 -149 132 -73 77 -146 155
-162 174 -15 19 -50 59 -77 89 -95 107 -295 369 -411 541 -65 96 -123 180
-128 185 -19 18 14 -39 57 -100 23 -33 71 -103 106 -155 34 -52 101 -146 148
-209 48 -62 95 -125 105 -140 11 -14 54 -64 96 -111 42 -47 89 -101 104 -120
16 -19 104 -114 196 -210 234 -246 231 -241 224 -265 -3 -13 -2 -16 4 -7 6 10
13 8 27 -8 10 -11 13 -20 7 -20 -6 0 -13 6 -15 13 -4 7 -8 3 -12 -10 -12 -39
-35 -28 -28 12 5 32 4 35 -20 35 -19 0 -31 -8 -42 -29 -8 -16 -24 -32 -35 -36
-11 -3 -20 -10 -20 -15 0 -14 27 -19 40 -7 9 9 11 8 8 -8 -5 -28 -42 -31 -77
-6 -18 13 -32 17 -36 11 -3 -5 -1 -10 6 -10 7 0 10 -3 7 -6 -3 -3 -23 -2 -44
2 l-39 7 40 18 c84 39 -28 8 -170 -47 -38 -14 -90 -32 -115 -40 -24 -8 -49
-19 -55 -25 -7 -7 -4 -8 10 -4 19 6 19 6 1 -5 -12 -9 -20 -9 -25 -2 -4 7 -18
7 -44 -1 -40 -13 -49 -27 -17 -27 11 0 20 -4 20 -10 0 -17 -25 -11 -60 15 -41
30 -43 30 -35 5 5 -15 2 -20 -13 -20 -11 0 -25 -7 -32 -15 -7 -8 -19 -15 -26
-15 -8 0 -14 -7 -14 -15 0 -8 -18 -24 -40 -35 -22 -11 -40 -26 -40 -33 0 -7
-14 -11 -38 -11 -20 1 -59 2 -86 3 -43 1 -48 3 -43 21 4 16 -3 13 -38 -15 -26
-22 -49 -33 -58 -29 -28 10 -40 -6 -21 -27 9 -10 22 -19 28 -19 6 1 0 10 -13
20 -26 23 -15 27 14 6 16 -12 17 -16 6 -30 -15 -18 -61 -22 -61 -5 0 6 7 8 18
4 14 -5 15 -4 4 7 -11 11 -17 9 -33 -11 -11 -13 -22 -21 -26 -17 -4 3 4 17 17
31 l24 26 -41 -23 c-23 -13 -44 -30 -46 -39 -2 -9 -24 -23 -48 -31 -24 -8 -53
-18 -64 -22 -20 -7 -20 -7 -1 8 11 9 34 19 52 22 18 3 38 12 44 19 6 8 -40 -5
-102 -27 -62 -22 -160 -55 -217 -73 -57 -19 -118 -40 -135 -48 -17 -8 -45 -20
-63 -26 -22 -9 -30 -18 -26 -29 4 -13 3 -14 -5 -3 -11 16 -46 6 -152 -41 -36
-17 -90 -39 -120 -50 -30 -12 -64 -27 -75 -34 -30 -21 -54 -17 -67 11 -14 30
-33 32 -50 5 -10 -15 -24 -20 -55 -20 -36 0 -43 3 -43 20 0 13 -7 20 -20 20
-16 0 -20 -7 -20 -35 0 -21 -8 -43 -20 -55 -25 -25 -30 -15 -26 49 2 28 0 49
-5 46 -4 -3 -10 14 -12 37 -2 24 -5 -2 -7 -57 -3 -95 -4 -97 -10 -40 l-7 60
-1 -67 c-1 -37 -6 -78 -12 -93 -24 -63 -149 -155 -393 -289 -125 -68 -162 -93
-159 -105 1 -7 -2 -10 -8 -6 -6 4 -37 -10 -68 -31 -31 -21 -73 -48 -92 -60
-211 -132 -281 -179 -444 -300 -104 -76 -219 -166 -255 -199 -37 -33 -115
-102 -174 -153 -59 -51 -107 -98 -107 -105 1 -17 36 -40 93 -61 27 -10 83 -37
125 -60 161 -88 332 -177 332 -172 0 3 -27 19 -60 36 -38 19 -58 35 -54 42 4
7 3 8 -4 4 -16 -10 -54 12 -46 26 5 7 2 8 -5 3 -18 -10 -160 65 -154 82 3 8 0
11 -9 8 -8 -3 -41 8 -74 24 -55 28 -57 30 -29 32 46 3 88 -2 109 -13 13 -7 16
-7 12 1 -5 7 2 11 18 11 14 0 43 6 63 14 21 8 67 19 103 26 36 6 88 18 115 25
28 8 104 28 170 45 218 56 243 63 555 160 255 79 375 119 500 167 184 71 227
83 304 83 92 0 136 -26 228 -136 72 -86 122 -135 159 -154 13 -7 26 -16 29
-20 29 -39 456 -179 745 -244 165 -37 322 -56 458 -56 120 0 105 17 -123 135
-248 129 -435 237 -558 322 -53 37 -99 70 -102 73 -3 3 -25 21 -50 40 -25 19
-51 40 -58 47 -25 24 -97 62 -187 98 -49 20 -110 45 -133 56 l-44 20 44 24
c23 14 132 70 241 125 109 54 211 109 227 120 15 11 31 20 34 20 3 0 57 28
118 63 185 102 240 127 308 138 91 15 186 6 248 -24 41 -20 196 -137 222 -168
10 -11 136 -105 175 -130 53 -33 121 -61 230 -94 50 -14 101 -30 115 -35 89
-31 270 -82 350 -99 191 -40 570 -77 570 -55 0 15 -73 59 -223 135 -278 142
-474 263 -695 431 -56 43 -133 93 -170 111 -106 53 -365 128 -439 127 -33 0
-28 17 5 25 16 3 58 23 93 43 35 21 111 61 169 89 412 201 507 249 524 265 11
10 26 18 33 18 7 0 73 -58 145 -130 73 -71 148 -137 167 -147 20 -10 51 -34
69 -53 18 -19 28 -25 21 -13 -9 16 -10 30 -4 49 13 37 35 43 35 10 0 -19 5
-26 20 -26 17 0 20 7 20 40 0 33 3 40 20 40 11 0 20 4 20 10 0 5 18 19 40 30
22 11 40 16 40 10 0 -5 7 -10 15 -10 8 0 15 4 15 9 0 5 -7 11 -15 15 -20 7
-21 76 -1 76 7 0 19 -6 25 -14 6 -7 37 -21 69 -30 31 -10 68 -22 82 -26 103
-37 663 -62 908 -41 204 18 468 71 445 90 -8 8 -35 14 -328 81 -99 23 -248 63
-332 91 -83 27 -157 49 -164 49 -6 0 -37 12 -68 27 -51 25 -53 28 -31 34 21 6
19 7 -13 8 -40 1 -49 6 -103 58 -18 18 -39 34 -46 34 -7 1 3 4 22 8 23 4 38
14 45 29 13 30 75 32 75 3 0 -10 -7 -21 -15 -25 -8 -3 -15 -12 -15 -21 0 -8 7
-15 15 -15 8 0 15 9 15 20 0 27 18 25 30 -2 9 -23 9 -23 9 3 1 17 9 29 23 36
19 8 22 16 19 56 l-3 47 42 0 c26 0 43 5 46 14 3 8 18 19 34 26 16 7 31 18 34
26 3 8 15 14 26 14 17 0 20 6 20 40 0 36 3 40 24 40 13 0 23 -6 22 -12 0 -7 1
-13 4 -13 3 0 18 -8 33 -18 l27 -17 0 30 c0 20 5 30 15 30 18 0 21 76 3 82 -8
3 -8 9 0 24 11 19 12 19 17 -1 9 -31 45 -30 45 0 0 13 8 28 17 34 15 8 15 13
5 36 -7 15 -11 29 -9 32 5 4 137 -257 137 -270 0 -5 -5 -5 -12 -1 -7 4 -8 3
-4 -5 4 -6 11 -9 16 -6 12 7 53 -62 44 -76 -4 -7 -3 -9 4 -5 6 3 24 -18 43
-51 18 -32 67 -112 109 -178 42 -66 92 -145 111 -175 19 -30 70 -100 114 -155
43 -55 101 -129 128 -165 61 -82 261 -302 359 -395 188 -180 285 -262 433
-367 277 -196 379 -255 702 -404 133 -62 399 -150 583 -194 299 -72 562 -100
920 -100 350 0 571 23 940 96 541 108 1245 364 1700 619 52 29 106 56 120 60
34 11 69 37 70 53 0 7 -7 20 -15 28 -12 12 -15 42 -15 137 0 141 -20 434 -50
727 -75 748 -193 1317 -401 1929 -101 298 -187 503 -320 766 -598 1182 -1534
1972 -2784 2349 -158 48 -308 86 -337 86 -15 0 -18 -9 -18 -45z m-2701 -3988
c34 -84 39 -109 15 -63 -15 26 -54 132 -54 144 0 13 11 -9 39 -81z m-32 -29
c-3 -8 -6 -5 -6 6 -1 11 2 17 5 13 3 -3 4 -12 1 -19z m143 -213 c0 -5 -5 -3
-10 5 -5 8 -10 20 -10 25 0 6 5 3 10 -5 5 -8 10 -19 10 -25z m-430 -441 c0 -8
-4 -12 -10 -9 -5 3 -10 10 -10 16 0 5 5 9 10 9 6 0 10 -7 10 -16z m-1553 -90
c2 -7 -7 -14 -21 -18 -19 -5 -23 -11 -19 -28 4 -19 3 -20 -6 -7 -7 11 -7 24 2
43 12 26 37 32 44 10z m-320 -10 c-3 -3 -12 -4 -19 -1 -8 3 -5 6 6 6 11 1 17
-2 13 -5z m-37 -8 c0 -11 -19 -15 -25 -6 -3 5 1 10 9 10 9 0 16 -2 16 -4z
m120 -36 c0 -11 -39 -24 -47 -16 -3 3 -3 12 0 20 6 15 47 11 47 -4z m-200 0
c12 -8 12 -10 -5 -10 -11 0 -31 -3 -45 -6 l-25 -5 25 15 c30 18 31 18 50 6z
m498 -25 c-3 -3 -9 2 -12 12 -6 14 -5 15 5 6 7 -7 10 -15 7 -18z m-584 -10
c-4 -8 -16 -15 -28 -15 -20 1 -20 1 4 15 31 18 30 18 24 0z m66 5 c-10 -6 -11
-10 -2 -10 6 0 12 -4 12 -10 0 -11 -69 -45 -77 -37 -12 12 7 37 29 37 17 0 19
3 9 9 -11 7 -10 10 5 14 32 8 40 7 24 -3z m-173 -46 c-3 -3 -12 -4 -19 -1 -8
3 -5 6 6 6 11 1 17 -2 13 -5z m-67 -34 c19 -11 29 -19 22 -20 -7 0 -10 -5 -6
-12 4 -7 3 -8 -5 -4 -6 4 -8 12 -5 18 4 7 -5 8 -27 4 -22 -4 -27 -3 -14 2 19
9 19 9 0 20 -34 19 -2 12 35 -8z m70 0 c0 -5 -7 -10 -16 -10 -8 0 -12 5 -9 10
3 6 10 10 16 10 5 0 9 -4 9 -10z m-660 -245 c0 -8 -4 -15 -10 -15 -5 0 -10 7
-10 15 0 8 5 15 10 15 6 0 10 -7 10 -15z m-53 -16 c-11 -6 -24 -12 -30 -13
-35 -6 -117 -39 -117 -47 0 -5 -16 -9 -36 -9 -21 0 -33 4 -29 10 3 6 17 10 30
10 13 0 28 7 33 17 9 15 98 41 147 42 19 0 19 0 2 -10z m-317 -69 c-8 -5 -24
-9 -35 -9 -16 1 -16 2 5 9 35 11 48 11 30 0z m2310 -40 c0 -5 -2 -10 -4 -10
-3 0 -8 5 -11 10 -3 6 -1 10 4 10 6 0 11 -4 11 -10z m-2435 -11 c-4 -6 -13 -8
-21 -5 -7 3 -12 0 -10 -7 1 -7 1 -9 -1 -5 -3 5 -17 6 -31 3 -26 -5 -26 -5 3 9
36 18 69 21 60 5z m15 -29 c-19 -13 -30 -13 -30 0 0 6 10 10 23 10 18 0 19 -2
7 -10z m-200 -51 c0 -4 -7 -6 -15 -3 -8 4 -15 10 -15 15 0 4 7 6 15 3 8 -4 15
-10 15 -15z m-50 -9 c-8 -5 -22 -9 -30 -9 -10 0 -8 3 5 9 27 12 43 12 25 0z
m45 -18 c-3 -3 -11 0 -18 7 -9 10 -8 11 6 5 10 -3 15 -9 12 -12z m85 8 c0 -5
-2 -10 -4 -10 -3 0 -8 5 -11 10 -3 6 -1 10 4 10 6 0 11 -4 11 -10z m-220 -30
c0 -12 -48 -32 -64 -27 -6 2 3 11 19 20 35 19 45 21 45 7z m135 -11 c10 -15
-1 -22 -24 -14 -12 3 -19 11 -16 16 8 12 32 11 40 -2z m-245 -39 c-24 -15 -36
-11 -14 4 10 8 21 12 24 10 2 -3 -2 -9 -10 -14z m65 -10 c3 -5 -1 -10 -9 -10
-8 0 -18 5 -21 10 -3 6 1 10 9 10 8 0 18 -4 21 -10z m-408 -102 c-3 -8 -6 -5
-6 6 -1 11 2 17 5 13 3 -3 4 -12 1 -19z m30 -10 c-3 -7 -5 -2 -5 12 0 14 2 19
5 13 2 -7 2 -19 0 -25z m-161 -123 c-11 -8 -27 -15 -35 -15 -10 0 -7 6 9 14
33 19 50 19 26 1z m-81 -45 c-3 -5 -12 -10 -18 -10 -7 0 -6 4 3 10 19 12 23
12 15 0z m-285 -164 c0 -2 -7 -7 -16 -10 -8 -3 -12 -2 -9 4 6 10 25 14 25 6z"/>
<path d="M7225 7984 c-226 -81 -427 -145 -547 -176 -69 -18 -124 -37 -121 -42
4 -5 -1 -7 -10 -3 -14 5 -153 -17 -272 -43 -37 -9 -36 -9 13 -4 32 3 52 1 52
-6 0 -5 -12 -10 -26 -10 -15 0 -23 -4 -18 -11 7 -12 -25 -89 -37 -89 -4 0 -14
9 -22 21 -9 13 -17 16 -22 10 -3 -6 -3 -11 2 -11 4 0 1 -5 -7 -10 -13 -8 -13
-10 1 -10 9 0 22 -6 28 -14 9 -11 7 -15 -13 -20 -14 -3 -28 -15 -31 -27 -5
-16 -12 -19 -31 -15 -23 6 -24 5 -12 -15 12 -18 19 -20 68 -15 62 6 101 -7 51
-17 -18 -4 -31 -13 -31 -22 0 -14 -17 -20 -47 -16 -7 1 -13 -3 -13 -10 0 -6 8
-9 20 -6 11 3 20 2 20 -1 0 -11 -63 -50 -92 -57 -16 -4 -25 -11 -22 -16 3 -5
-2 -9 -10 -9 -8 0 -17 4 -20 9 -7 10 -44 3 -52 -10 -3 -5 7 -14 22 -19 25 -10
26 -12 10 -29 -16 -17 -13 -18 60 -14 41 2 84 8 94 13 11 6 23 9 27 8 19 -4
93 15 88 23 -4 5 1 6 10 3 20 -8 77 15 68 29 -3 6 -1 7 5 3 11 -6 82 30 332
169 117 65 242 147 357 233 105 79 283 238 283 253 0 17 -56 8 -155 -27z
m-608 -210 c-3 -3 -12 -4 -19 -1 -8 3 -5 6 6 6 11 1 17 -2 13 -5z m-393 -429
c-4 -8 -8 -15 -10 -15 -2 0 -4 7 -4 15 0 8 4 15 10 15 5 0 7 -7 4 -15z"/>
<path d="M6105 7630 c-3 -5 -1 -10 4 -10 6 0 11 5 11 10 0 6 -2 10 -4 10 -3 0
-8 -4 -11 -10z"/>
<path d="M6080 7480 c0 -5 9 -10 20 -10 11 0 20 5 20 10 0 6 -9 10 -20 10 -11
0 -20 -4 -20 -10z"/>
<path d="M6640 6404 c-271 -99 -597 -194 -765 -224 -276 -50 -312 -60 -418
-115 -74 -39 -101 -58 -99 -70 3 -13 -2 -15 -17 -10 -24 7 -61 -2 -61 -16 0
-5 18 -9 39 -9 35 0 39 -2 37 -25 -1 -20 -9 -28 -36 -35 -19 -6 -43 -10 -52
-10 -26 0 -33 -21 -9 -27 14 -3 21 -13 21 -29 0 -13 5 -24 10 -24 6 0 10 -11
10 -25 0 -14 -3 -24 -7 -23 -10 3 -92 -35 -93 -43 0 -3 12 -4 28 -2 l27 4 -25
-16 c-25 -15 -24 -15 15 -8 22 5 110 7 195 5 158 -2 280 12 352 42 30 13 186
95 333 176 234 129 459 294 628 462 83 83 65 86 -113 22z m-1067 -311 c-7 -2
-19 -2 -25 0 -7 3 -2 5 12 5 14 0 19 -2 13 -5z m-48 -13 c-3 -5 -12 -10 -18
-10 -7 0 -6 4 3 10 19 12 23 12 15 0z m-28 -26 c-3 -3 -12 -4 -19 -1 -8 3 -5
6 6 6 11 1 17 -2 13 -5z m-37 -9 c0 -10 -65 -45 -85 -45 -13 0 -4 9 25 25 45
24 60 29 60 20z m15 -35 c-11 -5 -27 -9 -35 -9 -9 0 -8 4 5 9 11 5 27 9 35 9
9 0 8 -4 -5 -9z"/>
<path d="M5301 6074 c0 -11 3 -14 6 -6 3 7 2 16 -1 19 -3 4 -6 -2 -5 -13z"/>
<path d="M5150 5685 c0 -9 5 -15 11 -13 6 2 11 8 11 13 0 5 -5 11 -11 13 -6 2
-11 -4 -11 -13z"/>
<path d="M5125 5643 c2 -36 -20 -91 -32 -79 -3 3 0 13 8 23 12 15 12 16 -4 10
-10 -4 -21 -7 -23 -7 -2 0 -4 -9 -4 -20 0 -11 5 -20 11 -20 12 0 10 -10 -15
-75 -10 -28 -15 -33 -16 -18 0 30 -19 39 -35 17 -20 -26 -18 -34 6 -34 16 0
19 -4 14 -17 -4 -10 -12 -34 -18 -53 l-10 -35 -11 28 c-5 15 -13 27 -18 27
-12 0 -10 -18 8 -52 l16 -30 17 28 c9 16 25 52 35 79 26 68 79 179 89 183 4 2
3 10 -4 18 -9 10 -9 17 0 28 8 10 8 16 -3 25 -12 10 -14 6 -11 -26z"/>
<path d="M5047 5531 c-3 -12 -2 -23 3 -26 12 -7 22 27 12 37 -6 6 -12 1 -15
-11z"/>
<path d="M4900 5375 c-10 -13 -9 -15 9 -15 12 0 21 6 21 15 0 8 -4 15 -9 15
-5 0 -14 -7 -21 -15z"/>
<path d="M4967 5305 c6 -44 9 -50 16 -38 2 4 -2 24 -9 43 l-13 35 6 -40z"/>
<path d="M4925 5290 c-3 -5 3 -10 14 -10 12 0 21 5 21 10 0 6 -6 10 -14 10 -8
0 -18 -4 -21 -10z"/>
<path d="M4923 5263 c-19 -4 -23 -11 -23 -44 0 -21 5 -39 10 -39 6 0 10 5 10
12 0 6 3 9 6 6 8 -8 -7 -78 -16 -78 -5 0 -11 8 -13 18 -3 11 -4 10 -2 -4 1
-17 -3 -20 -22 -16 -41 8 -67 -31 -71 -106 -4 -57 -7 -64 -31 -74 -15 -6 -21
-12 -14 -15 9 -3 10 -10 3 -23 -7 -13 -7 -21 0 -25 5 -3 10 -15 10 -27 0 -24
-30 -91 -38 -84 -3 3 1 12 8 21 11 13 5 15 -44 15 -54 0 -58 -1 -67 -30 -6
-16 -15 -30 -20 -30 -5 0 -9 -7 -9 -15 0 -8 -10 -33 -21 -55 -13 -24 -19 -51
-16 -66 3 -18 1 -22 -6 -15 -18 18 -31 13 -45 -19 -13 -29 -32 -41 -32 -20 0
6 -4 10 -10 10 -5 0 -10 -18 -10 -41 0 -28 -4 -38 -12 -33 -7 4 -8 3 -4 -5 5
-7 -3 -29 -18 -51 -14 -22 -26 -46 -26 -54 0 -8 -4 -18 -10 -21 -16 -10 -12
-38 5 -31 18 6 19 -14 5 -63 -6 -21 -6 -40 0 -50 6 -10 10 -11 10 -3 0 19 20
14 20 -5 0 -15 2 -16 10 -3 6 9 5 17 -1 21 -7 4 -1 22 15 47 14 23 26 48 26
55 0 7 4 17 9 22 18 19 22 53 8 67 -17 16 -30 95 -18 102 20 13 40 -7 43 -42
l3 -37 23 23 c27 27 25 46 -6 50 -16 2 -22 10 -22 28 0 24 3 25 43 21 42 -5
44 -4 39 19 -2 13 -8 24 -13 24 -17 0 -9 35 11 48 16 10 20 10 20 0 2 -55 9
-110 14 -115 3 -4 6 3 6 15 0 11 4 23 9 26 7 5 51 86 112 206 37 74 37 74 20
88 -14 11 -13 12 9 10 23 -3 25 0 22 32 -2 22 0 30 6 22 9 -14 17 0 95 168 58
125 62 139 43 146 -9 3 -13 10 -10 15 3 5 4 8 2 8 -2 -1 -13 -4 -25 -6z m-47
-214 l-16 -34 6 35 c7 41 16 59 21 43 2 -6 -3 -26 -11 -44z m-29 -51 c-3 -8
-6 -5 -6 6 -1 11 2 17 5 13 3 -3 4 -12 1 -19z m-193 -250 c-4 -6 3 -5 16 2 19
10 22 9 27 -9 3 -11 10 -18 16 -14 6 4 7 1 2 -7 -6 -10 -11 -9 -23 6 -13 17
-14 15 -7 -21 6 -37 5 -39 -9 -20 -8 11 -16 27 -16 35 0 12 -2 12 -12 1 -10
-11 -10 -14 0 -18 6 -3 12 -11 12 -18 0 -8 -6 -17 -12 -21 -7 -4 -10 -3 -5 1
4 5 -1 17 -10 28 -13 15 -15 21 -5 24 6 3 12 16 12 29 0 15 4 23 10 19 6 -4 7
-11 4 -17z m-174 -367 c0 -25 -20 -38 -31 -20 -15 23 -10 39 11 39 13 0 20 -7
20 -19z"/>
<path d="M4818 5164 c-2 -19 0 -38 5 -41 12 -8 17 0 24 41 4 28 2 36 -10 36
-10 0 -16 -12 -19 -36z"/>
<path d="M4570 4530 c0 -5 5 -10 10 -10 6 0 10 5 10 10 0 6 -4 10 -10 10 -5 0
-10 -4 -10 -10z"/>
<path d="M4603 4519 c-11 -14 -43 -86 -43 -97 0 -3 14 16 30 42 29 45 38 85
13 55z"/>
<path d="M4321 4464 c0 -11 3 -14 6 -6 3 7 2 16 -1 19 -3 4 -6 -2 -5 -13z"/>
<path d="M4319 4315 c-1 -33 -2 -68 -1 -77 1 -10 -4 -17 -11 -15 -7 1 -12 -8
-12 -23 0 -15 5 -24 13 -22 6 1 12 -4 13 -10 1 -18 20 49 26 96 3 21 1 48 -5
60 -6 11 -13 28 -15 36 -3 8 -6 -12 -8 -45z"/>
<path d="M4490 4310 c-7 -17 -10 -33 -8 -36 3 -3 11 9 17 27 6 18 9 34 7 36
-2 2 -9 -10 -16 -27z"/>
<path d="M2389 4253 c-5 -15 -9 -36 -7 -47 2 -13 7 -2 14 27 12 52 9 62 -7 20z"/>
<path d="M4158 4190 c-7 -24 -3 -38 8 -28 3 4 4 17 2 30 l-3 23 -7 -25z"/>
<path d="M4299 4105 c-11 -25 -21 -61 -22 -79 -1 -22 -7 -32 -17 -31 -29 2
-40 16 -40 51 0 22 -5 34 -13 34 -8 0 -20 12 -27 28 l-13 27 -9 -35 c-5 -19
-7 -48 -4 -65 4 -16 7 -40 6 -53 0 -20 3 -22 40 -16 31 5 40 3 40 -8 0 -22 30
-17 46 7 23 36 34 81 21 94 -6 6 -7 14 -3 18 4 4 11 2 15 -6 10 -16 21 8 21
44 0 43 -20 38 -41 -10z"/>
<path d="M4231 4122 c-17 -32 -13 -42 14 -42 28 0 30 5 11 39 -13 24 -14 24
-25 3z"/>
<path d="M6308 3974 c-3 -5 -2 -20 3 -34 4 -14 8 -20 9 -15 0 6 11 -17 24 -49
14 -38 25 -55 30 -47 4 6 1 23 -8 36 -9 14 -24 46 -35 71 -10 26 -20 43 -23
38z"/>
<path d="M6231 3824 c0 -11 3 -14 6 -6 3 7 2 16 -1 19 -3 4 -6 -2 -5 -13z"/>
<path d="M4110 3610 c-8 -5 -10 -10 -5 -10 6 0 17 5 25 10 8 5 11 10 5 10 -5
0 -17 -5 -25 -10z"/>
<path d="M3600 3591 c0 -6 4 -13 10 -16 6 -3 7 1 4 9 -7 18 -14 21 -14 7z"/>
<path d="M3607 3523 c-9 -21 -16 -30 -16 -20 -1 9 -5 17 -10 17 -4 0 -8 -12
-8 -27 0 -16 -3 -37 -7 -48 l-8 -20 17 20 c23 28 65 115 55 115 -4 0 -15 -17
-23 -37z"/>
<path d="M3515 3511 c3 -6 10 -9 15 -6 5 3 14 -3 20 -12 10 -17 11 -16 8 2 -2
12 -12 21 -27 23 -15 2 -21 0 -16 -7z"/>
<path d="M3435 3451 c-6 -11 9 -23 19 -14 9 9 7 23 -3 23 -6 0 -12 -4 -16 -9z"/>
<path d="M3231 3440 c-2 -32 -72 -120 -120 -152 -14 -10 -20 -18 -13 -18 18 0
106 90 127 129 9 18 14 38 11 44 -3 8 -5 6 -5 -3z"/>
<path d="M3251 3404 c0 -11 3 -14 6 -6 3 7 2 16 -1 19 -3 4 -6 -2 -5 -13z"/>
<path d="M3388 3368 c9 -9 15 -9 24 0 9 9 7 12 -12 12 -19 0 -21 -3 -12 -12z"/>
<path d="M2093 3115 c-3 -9 -3 -18 -1 -21 3 -3 8 4 11 16 6 23 -1 27 -10 5z"/>
<path d="M2111 3084 c0 -11 3 -14 6 -6 3 7 2 16 -1 19 -3 4 -6 -2 -5 -13z"/>
<path d="M1700 3005 c0 -49 3 -86 6 -82 7 7 6 158 -1 166 -3 2 -5 -35 -5 -84z"/>
<path d="M2030 3020 c0 -5 7 -10 16 -10 8 0 12 5 9 10 -3 6 -10 10 -16 10 -5
0 -9 -4 -9 -10z"/>
<path d="M2087 3003 c-4 -3 -7 -11 -7 -17 0 -6 5 -5 12 2 6 6 9 14 7 17 -3 3
-9 2 -12 -2z"/>
<path d="M2020 2958 c0 -7 5 -20 11 -28 9 -12 10 -11 6 8 -3 12 -1 22 4 22 15
0 22 -28 10 -42 -7 -7 -19 -22 -27 -33 -15 -19 -15 -19 -4 3 8 17 8 27 -2 41
-12 16 -13 13 -15 -27 -2 -63 5 -69 33 -28 28 40 49 90 35 81 -5 -3 -12 -1
-16 5 -9 14 -35 12 -35 -2z"/>
<path d="M660 1135 c0 -7 61 -37 66 -33 2 3 -12 12 -31 21 -19 9 -35 15 -35
12z"/>
<path d="M747 1089 c7 -7 15 -10 18 -7 3 3 -2 9 -12 12 -14 6 -15 5 -6 -5z"/>
</g>
</svg>
